# xmcd
# 
# Track frame offsets:
#     150
#     25559
#     37348
#     54149
#     70145
#     84666
#     102957
#     121869
#     135177
#     149115
#     166610
# 
# Disc length: 2660
# 
# Revision: 3
# Processed by: cddbd v1.5.2PL0 Copyright (c) Steve Scherf et al.
# Submitted via: fre:ac v1.0.27
# 
DISCID=8a0a620b
DTITLE=The Silos - When the Telephone Rings
DYEAR=2004
DGENRE=AltCountry
TTITLE0=The Only One
TTITLE1=Whistled a Slow Waltz
TTITLE2=Ready for Anything
TTITLE3=Holding on to Life
TTITLE4=Innocent
TTITLE5=When the Telephone Rings
TTITLE6=The First Move
TTITLE7=Don't Wanna Know
TTITLE8=Days
TTITLE9=Dumbest on Parade
TTITLE10=Take a Hit
EXTD=YEAR: 2004
EXTT0=
EXTT1=
EXTT2=
EXTT3=
EXTT4=
EXTT5=
EXTT6=
EXTT7=
EXTT8=
EXTT9=
EXTT10=
PLAYORDER=
